<svg width="193" height="108" viewBox="0 0 193 108" fill="none" xmlns="http://www.w3.org/2000/svg">
<path d="M33.39 49H30.66L27.3 44.14V49H24.9V38.5H27.3V43.06L30.51 38.5H33.24L29.7 43.615L33.39 49ZM40.4396 46.69H44.6396V49H38.0396V38.5H44.5646V40.81H40.4396V42.55H44.1896V44.83H40.4396V46.69ZM60.2438 38.5V49H57.8438V42.895L55.1288 47.35H54.8588L52.1438 42.895V49H49.7438V38.5H52.1438L54.9938 43.165L57.8438 38.5H60.2438ZM68.1984 46.69H72.3984V49H65.7984V38.5H72.3234V40.81H68.1984V42.55H71.9484V44.83H68.1984V46.69Z" fill="#272525"/>
<path d="M35.7 67.5V69.81H33V78H30.6V69.81H27.9V67.5H35.7ZM64.2606 78.21C62.6906 78.21 61.3856 77.69 60.3456 76.65C59.3156 75.6 58.8006 74.3 58.8006 72.75C58.8006 71.2 59.3156 69.905 60.3456 68.865C61.3856 67.815 62.6906 67.29 64.2606 67.29C65.2006 67.29 66.0706 67.51 66.8706 67.95C67.6706 68.38 68.3006 68.97 68.7606 69.72L66.6906 70.92C66.4606 70.51 66.1306 70.195 65.7006 69.975C65.2706 69.745 64.7906 69.63 64.2606 69.63C63.3306 69.63 62.5856 69.915 62.0256 70.485C61.4756 71.055 61.2006 71.81 61.2006 72.75C61.2006 73.69 61.4756 74.445 62.0256 75.015C62.5856 75.585 63.3306 75.87 64.2606 75.87C64.7906 75.87 65.2706 75.755 65.7006 75.525C66.1406 75.295 66.4706 74.98 66.6906 74.58L68.7606 75.78C68.3106 76.53 67.6856 77.125 66.8856 77.565C66.0856 77.995 65.2106 78.21 64.2606 78.21Z" fill="#272525"/>
<path d="M48.3556 54.4007C48.0444 54.7623 48 56.5187 48 69.898C48 79.8162 48.0889 85.1886 48.2222 85.5244C48.4889 86.0668 49.3333 86.1701 49.7333 85.7052C49.9333 85.4727 50 81.6242 50 69.9496C50 54.969 49.9778 54.504 49.5778 54.2458C48.9778 53.8841 48.7556 53.91 48.3556 54.4007Z" fill="black"/>
<path d="M88.7921 0.562088C89.2998 0.890472 89.9568 1.63678 90.2852 2.20399C90.6735 2.95031 91.0915 3.30856 91.8082 3.42796C93.3909 3.72649 95.3619 5.15942 96.2577 6.71177C97.721 9.21941 97.2432 12.8316 95.123 14.8019C94.3465 15.5184 92.0173 16.6528 91.2707 16.6826C91.0019 16.6826 90.1658 17.2797 89.4491 18.026C88.1352 19.3395 88.0456 19.3694 86.2538 19.3694C84.3128 19.3694 83.5364 19.1007 82.4016 18.0857L81.7446 17.4886V23.6085V29.7581L80.5501 31.1911C79.8931 31.9971 79.3556 32.7136 79.3556 32.833C79.3556 32.9225 79.8931 33.4897 80.5501 34.0868L81.7446 35.1615V43.5203V51.8791L80.4008 52.9538L79.0869 54.0583L80.4008 55.7002L81.7446 57.3422V59.9692V62.5962L80.4008 63.7008L79.057 64.7755L80.4008 66.507L81.7446 68.2086V79.2243C81.7446 89.6728 81.7745 90.1803 82.2523 89.7623C84.6413 87.6726 88.165 87.9114 89.9568 90.24C90.4943 90.9564 91.0318 91.3147 91.5096 91.3147C93.6597 91.3147 96.1383 93.4939 96.855 96.0314C97.5119 98.2704 97.064 100.3 95.5709 102.062C94.466 103.345 92.5847 104.42 91.4499 104.45C91.0617 104.45 90.6436 104.868 90.2554 105.554C89.3894 107.107 88.3143 107.823 86.433 107.973C85.2086 108.062 84.5517 107.943 83.5961 107.465C82.9391 107.137 82.312 106.719 82.1925 106.54C81.9238 106.122 14.8529 106.122 14.8529 106.569C14.8529 107.226 12.1354 108.092 10.6124 107.973C8.88039 107.793 7.77549 107.047 6.93935 105.554C6.55113 104.868 6.13306 104.45 5.74484 104.45C3.7142 104.42 0.877289 101.883 0.220314 99.5242C-0.795006 95.9418 1.83287 91.7923 5.35663 91.4042C6.37195 91.2848 6.76016 91.046 7.23796 90.2997C8.52204 88.2995 11.568 87.7323 13.8674 89.0458L15.1216 89.7922L14.9425 76.3584C14.7931 65.7905 14.8529 62.5067 15.1515 60.8349L15.5397 58.7452L14.2258 56.0585C12.9715 53.4911 12.9417 53.3419 13.3896 52.5657C13.6285 52.1179 14.5244 50.476 15.3904 48.8938L16.9432 46.0279L16.0474 44.7741C15.2411 43.6696 15.1515 43.3412 15.1515 41.1321V38.6841L14.4647 39.6991C14.1063 40.2663 13.2702 40.953 12.6431 41.2813C11.6576 41.759 11.359 41.7888 10.3138 41.4903C8.85053 41.0425 7.77548 39.938 7.50672 38.5946C7.23796 37.1318 7.56644 36.1467 8.76094 34.9525L9.77627 33.9375V26.7132V19.5186L8.7908 18.9813C8.25328 18.6828 7.56644 18.0558 7.23796 17.5782C6.90948 17.0707 6.37196 16.6826 6.04347 16.6826C5.20733 16.6528 2.90791 15.5781 2.07177 14.8019C-0.0783234 12.8018 -0.556114 9.27911 0.907143 6.74162C1.83288 5.18928 3.77393 3.72649 5.3865 3.42796C6.1032 3.2787 6.52126 2.95031 7.02892 2.05473C7.98452 0.382965 9.11929 -0.124519 11.5979 0.0247421C13.3299 0.114304 13.7778 0.26355 14.4945 0.950165L15.3307 1.7562H48.5974H81.8641L82.7002 0.950165C83.4468 0.233696 83.835 0.114304 85.7163 0.0247421C87.4782 -0.0349655 88.0456 0.0545883 88.7921 0.562088ZM84.3128 3.30855C83.9246 3.8459 83.835 5.01015 83.835 9.6672C83.835 16.3542 83.9544 16.6826 86.0747 16.6826C87.09 16.6826 87.4782 16.5333 87.7171 16.1154C88.165 15.2497 88.1053 3.45781 87.6574 3.01002C87.4483 2.80105 86.7316 2.65179 86.0448 2.65179C85.0593 2.65179 84.6413 2.80105 84.3128 3.30855ZM9.53736 3.01002C9.08942 3.45781 9.02971 15.2497 9.47765 16.1154C9.71655 16.5333 10.1048 16.6826 11.1201 16.6826C13.2403 16.6826 13.3598 16.3542 13.3598 9.6672C13.3598 3.01002 13.2403 2.65179 11.1499 2.65179C10.4631 2.65179 9.7464 2.80105 9.53736 3.01002ZM79.8036 5.09972C79.5945 5.60722 79.266 5.78632 78.6091 5.78632C77.9521 5.78632 77.6236 5.60722 77.4146 5.09972L77.1159 4.44296H46.5966H16.0474V7.5775V10.712H27.4847C35.9954 10.712 39.0115 10.8016 39.2803 11.0703C39.788 11.5778 39.7282 13.0107 39.1609 13.2197C38.8921 13.3092 33.6064 13.3988 27.3652 13.3988H16.0474V14.1451V14.8914H41.1019H66.1863L66.6342 15.5482C67.0225 16.1154 67.0523 16.2945 66.694 16.8319C66.3058 17.4289 66.0669 17.4289 42.2964 17.5782L18.287 17.7275L18.0481 30.1761L17.8391 42.6247L18.8843 44.0875C19.4517 44.8935 19.9295 45.6996 19.9295 45.8787C19.9295 46.0578 19.0336 47.849 17.9287 49.8491L15.9578 53.521L17.2419 55.9391L18.5259 58.3571L18.0481 60.3573C17.4808 62.5962 17.3912 67.7608 17.7495 81.8513L17.9287 90.1206H48.5078H79.057V79.6124V69.1042L77.9222 67.7608C75.3242 64.6561 75.2943 64.3277 77.5639 62.5365C78.9973 61.4021 79.057 61.3126 79.057 59.8199C79.057 58.4168 78.9375 58.1482 77.5639 56.5361C75.3839 53.9688 75.3839 53.8494 77.3847 52.0582L79.057 50.5656V43.5203V36.475L77.4146 34.9525C76.5187 34.1167 75.7721 33.2211 75.7721 32.9823C75.7721 32.7434 76.5187 31.6986 77.4146 30.6537L79.057 28.773V23.1905V17.5782H76.4291C73.6519 17.5782 73.0845 17.3394 73.0845 16.2348C73.0845 15.0407 73.622 14.8914 77.4743 14.8914H81.1474V9.6672C81.1474 4.89075 81.1175 4.44296 80.6098 4.44296C80.3411 4.44296 79.9529 4.74149 79.8036 5.09972ZM90.763 10.0254C90.8526 13.6675 90.8825 13.8466 91.4499 13.757C93.2118 13.4884 94.7945 11.13 94.4361 9.30896C94.1972 7.93573 92.5548 6.23412 91.4797 6.23412H90.6735L90.763 10.0254ZM3.95311 7.21926C2.63917 8.53278 2.37039 9.99559 3.08709 11.4882C3.68433 12.6823 4.75938 13.6078 5.74484 13.757C6.31223 13.8466 6.34209 13.6675 6.43168 10.0254L6.52126 6.23412H5.71498C5.23718 6.23412 4.58022 6.59235 3.95311 7.21926ZM13.0611 19.2201C12.4938 19.3992 12.4639 19.6679 12.4639 26.6833V33.9375L13.2104 34.4152C13.6285 34.7137 14.2258 35.3108 14.5244 35.8183L15.0619 36.684L15.2411 33.5196C15.3605 31.7583 15.4501 27.4296 15.4501 23.9368V17.5185L14.5543 18.2648C14.0765 18.6827 13.3896 19.1007 13.0611 19.2201ZM10.3437 37.1617C9.83599 37.7886 10.3436 38.6244 11.2992 38.6244C12.0159 38.6244 12.3743 37.9378 12.0458 37.1019C11.8368 36.5347 10.8513 36.5646 10.3437 37.1617ZM84.5517 91.4341C84.0141 91.8222 83.9843 92.2699 83.9843 98.1808C83.9843 104.092 84.0141 104.539 84.5517 104.928C85.3281 105.465 86.5226 105.465 87.3587 104.868C88.0157 104.42 88.0157 104.271 88.0157 98.1808C88.0157 92.0908 88.0157 91.9416 87.3587 91.4938C86.5226 90.8967 85.3281 90.8967 84.5517 91.4341ZM9.83599 91.4938C9.17902 91.9416 9.17902 92.0908 9.17902 98.1808C9.17902 104.271 9.17902 104.42 9.83599 104.868C10.7617 105.525 12.0458 105.465 12.7625 104.748C13.3299 104.181 13.3598 103.763 13.3598 98.1808C13.3598 92.5983 13.3299 92.1804 12.7625 91.6132C12.0458 90.8967 10.7617 90.837 9.83599 91.4938ZM16.0474 98.1808C16.0474 103.345 16.0772 103.554 16.6446 103.554C17.0328 103.554 17.2419 103.345 17.2419 102.957C17.2419 102.241 18.2572 101.674 19.0336 101.912C19.3621 102.032 19.7204 102.42 19.81 102.838L19.9892 103.554H50.5683H81.1474V100.271V96.9867H69.7101C63.439 96.9867 58.1533 96.8673 57.9742 96.7479C57.4068 96.3598 57.2873 95.5836 57.7353 94.9269C58.1832 94.2999 58.3325 94.2999 69.6802 94.2999H81.1474V93.5536V92.8073H48.5974H16.0474V98.1808ZM90.7033 97.9121V101.823L91.5096 101.614C93.3013 101.166 94.7945 98.8973 94.4063 97.1957C94.018 95.4344 92.6145 94.0313 91.211 94.0014C90.763 94.0014 90.7033 94.3895 90.7033 97.9121ZM4.52048 94.5686C3.29613 95.3149 2.48985 97.0166 2.75861 98.3898C2.99751 99.6436 4.55035 101.375 5.65526 101.644L6.4914 101.823V97.9121C6.4914 93.5536 6.40182 93.4044 4.52048 94.5686Z" fill="black"/>
<path d="M92.509 61.319C91.987 61.319 91.5423 61.1353 91.175 60.768C90.8077 60.4007 90.624 59.956 90.624 59.434C90.624 58.912 90.8077 58.4673 91.175 58.1C91.5423 57.7327 91.987 57.549 92.509 57.549C93.0503 57.549 93.495 57.7327 93.843 58.1C94.2103 58.4673 94.394 58.912 94.394 59.434C94.394 59.956 94.2103 60.4007 93.843 60.768C93.495 61.1353 93.0503 61.319 92.509 61.319ZM104.469 61.377C102.575 61.377 100.951 60.9323 99.5972 60.043C98.2632 59.1537 97.3256 57.9357 96.7842 56.389L99.1042 55.055C99.8969 57.5103 101.705 58.738 104.527 58.738C105.919 58.738 106.983 58.4577 107.717 57.897C108.452 57.317 108.819 56.5533 108.819 55.606C108.819 54.6393 108.452 53.9143 107.717 53.431C106.983 52.9477 105.755 52.4353 104.034 51.894C103.184 51.6233 102.536 51.4107 102.091 51.256C101.647 51.082 101.086 50.8307 100.409 50.502C99.7519 50.154 99.2589 49.806 98.9302 49.458C98.6016 49.0907 98.3019 48.617 98.0312 48.037C97.7799 47.457 97.6542 46.7997 97.6542 46.065C97.6542 44.3057 98.2729 42.9137 99.5102 41.889C100.748 40.845 102.256 40.323 104.034 40.323C105.639 40.323 107.031 40.729 108.21 41.541C109.409 42.353 110.308 43.426 110.907 44.76L108.645 46.065C107.775 43.977 106.238 42.933 104.034 42.933C102.932 42.933 102.043 43.2037 101.366 43.745C100.69 44.2863 100.351 45.021 100.351 45.949C100.351 46.8383 100.67 47.515 101.308 47.979C101.946 48.443 103.048 48.9263 104.614 49.429C105.175 49.603 105.571 49.7287 105.803 49.806C106.035 49.8833 106.393 50.0187 106.876 50.212C107.379 50.4053 107.746 50.56 107.978 50.676C108.21 50.792 108.52 50.9563 108.906 51.169C109.312 51.3817 109.612 51.5847 109.805 51.778C109.999 51.9713 110.221 52.213 110.472 52.503C110.743 52.7737 110.936 53.054 111.052 53.344C111.168 53.634 111.265 53.9723 111.342 54.359C111.439 54.7263 111.487 55.1227 111.487 55.548C111.487 57.3267 110.84 58.7477 109.544 59.811C108.249 60.855 106.557 61.377 104.469 61.377ZM121.883 48.936H118.026V56.795C118.026 57.5103 118.161 58.0227 118.432 58.332C118.722 58.622 119.157 58.7767 119.737 58.796C120.317 58.796 121.032 58.7767 121.883 58.738V61C119.679 61.29 118.065 61.116 117.04 60.478C116.015 59.8207 115.503 58.593 115.503 56.795V48.936H112.632V46.5H115.503V43.194L118.026 42.44V46.5H121.883V48.936ZM134.96 46.5H137.483V61H134.96V58.912C133.935 60.5553 132.369 61.377 130.262 61.377C128.561 61.377 127.198 60.8453 126.173 59.782C125.148 58.6993 124.636 57.2397 124.636 55.403V46.5H127.159V55.258C127.159 56.4373 127.478 57.3557 128.116 58.013C128.754 58.651 129.634 58.97 130.755 58.97C132.012 58.97 133.027 58.5833 133.8 57.81C134.573 57.0173 134.96 55.809 134.96 54.185V46.5ZM153.33 40.7H155.853V61H153.33V58.506C152.073 60.42 150.246 61.377 147.849 61.377C145.819 61.377 144.089 60.6423 142.658 59.173C141.227 57.6843 140.512 55.8767 140.512 53.75C140.512 51.6233 141.227 49.8253 142.658 48.356C144.089 46.8673 145.819 46.123 147.849 46.123C150.246 46.123 152.073 47.08 153.33 48.994V40.7ZM148.168 58.941C149.637 58.941 150.865 58.448 151.851 57.462C152.837 56.4567 153.33 55.2193 153.33 53.75C153.33 52.2807 152.837 51.053 151.851 50.067C150.865 49.0617 149.637 48.559 148.168 48.559C146.718 48.559 145.5 49.0617 144.514 50.067C143.528 51.053 143.035 52.2807 143.035 53.75C143.035 55.2193 143.528 56.4567 144.514 57.462C145.5 58.448 146.718 58.941 148.168 58.941ZM160.952 43.861C160.468 43.861 160.062 43.6967 159.734 43.368C159.405 43.0393 159.241 42.643 159.241 42.179C159.241 41.715 159.405 41.3187 159.734 40.99C160.062 40.642 160.468 40.468 160.952 40.468C161.416 40.468 161.812 40.642 162.141 40.99C162.469 41.3187 162.634 41.715 162.634 42.179C162.634 42.643 162.469 43.0393 162.141 43.368C161.812 43.6967 161.416 43.861 160.952 43.861ZM159.676 61V46.5H162.199V61H159.676ZM178.286 59.173C176.797 60.6423 174.989 61.377 172.863 61.377C170.736 61.377 168.928 60.6423 167.44 59.173C165.97 57.7037 165.236 55.896 165.236 53.75C165.236 51.604 165.97 49.7963 167.44 48.327C168.928 46.8577 170.736 46.123 172.863 46.123C174.989 46.123 176.797 46.8577 178.286 48.327C179.774 49.7963 180.519 51.604 180.519 53.75C180.519 55.896 179.774 57.7037 178.286 59.173ZM172.863 58.912C174.313 58.912 175.531 58.419 176.517 57.433C177.503 56.447 177.996 55.2193 177.996 53.75C177.996 52.2807 177.503 51.053 176.517 50.067C175.531 49.081 174.313 48.588 172.863 48.588C171.432 48.588 170.224 49.081 169.238 50.067C168.252 51.053 167.759 52.2807 167.759 53.75C167.759 55.2193 168.252 56.447 169.238 57.433C170.224 58.419 171.432 58.912 172.863 58.912Z" fill="black"/>
</svg>
