<svg width="37" height="37" viewBox="0 0 37 37" fill="none" xmlns="http://www.w3.org/2000/svg">
<path d="M17.9269 29.6126L13.2043 29.135C7.34091 28.5422 5.35966 24.1472 8.8051 19.3629L11.5809 15.5026L14.3566 11.6422C17.8021 6.85789 22.6043 7.34346 25.0223 12.7206L26.9691 17.0585L28.9159 21.3964C31.3339 26.7736 28.513 30.6829 22.6495 30.0901L17.9269 29.6126Z" fill="#FAEDDC"/>
<path d="M15.92 7.89277C15.9462 7.87532 15.9756 7.86638 16.0054 7.8668C16.0348 7.86665 16.0637 7.87559 16.0895 7.89277C16.12 7.91503 16.1449 7.94703 16.1615 7.9853L25.3097 26.9256C25.3577 27.023 25.3564 27.1269 25.3124 27.2227C25.2954 27.262 25.2707 27.2955 25.2403 27.3201C25.2139 27.3398 25.1832 27.3494 25.1523 27.3477H6.85854C6.82757 27.3495 6.79687 27.3399 6.77049 27.3201C6.74014 27.2955 6.71537 27.262 6.69845 27.2227C6.67646 27.1776 6.66508 27.1261 6.66555 27.0737C6.66602 27.0213 6.67832 26.9701 6.70111 26.9256L15.848 7.9853C15.8647 7.94708 15.8896 7.9151 15.92 7.89277V7.89277ZM17.3129 7.16224C17.1808 6.8823 16.9904 6.64973 16.7608 6.48799C16.5312 6.32626 16.2707 6.24109 16.0054 6.24109C15.7401 6.24109 15.4796 6.32626 15.25 6.48799C15.0204 6.64973 14.83 6.8823 14.6979 7.16224L5.54975 26.1025C4.94005 27.3655 5.67116 28.9711 6.85721 28.9711H25.1523C26.3383 28.9711 27.0708 27.3639 26.4597 26.1025L17.3129 7.16224Z" fill="#B59B79"/>
</svg>
