<svg width="35" height="35" viewBox="0 0 35 35" fill="none" xmlns="http://www.w3.org/2000/svg">
<path d="M16.3334 8.99996V27C16.3334 28.44 15.7467 29.76 14.8133 30.72L14.76 30.7733C14.64 30.8933 14.5067 31.0133 14.3867 31.1066C13.9867 31.4533 13.5333 31.72 13.0667 31.9066C12.92 31.9733 12.7734 32.0266 12.6267 32.08C12.1067 32.2533 11.5467 32.3333 11 32.3333C10.64 32.3333 10.28 32.2933 9.93337 32.2266C9.76004 32.1866 9.58668 32.1466 9.41335 32.0933C9.20002 32.0266 9.00003 31.96 8.80003 31.8666C8.80003 31.8533 8.80002 31.8533 8.78668 31.8666C8.41335 31.68 8.05336 31.4666 7.72003 31.2133L7.70669 31.2C7.53335 31.0666 7.37337 30.9333 7.2267 30.7733C7.08004 30.6133 6.93335 30.4533 6.78668 30.28C6.53335 29.9466 6.32003 29.5866 6.13336 29.2133C6.1467 29.2 6.1467 29.2 6.13336 29.2C6.13336 29.2 6.13335 29.1866 6.12002 29.1733C6.04002 28.9866 5.97334 28.7866 5.90668 28.5866C5.85334 28.4133 5.81334 28.24 5.77334 28.0666C5.70667 27.72 5.66669 27.36 5.66669 27V8.99996C5.66669 6.99996 7.00002 5.66663 9.00002 5.66663H13C15 5.66663 16.3334 6.99996 16.3334 8.99996Z" fill="#DFD8FC"/>
<path d="M32.3333 25V29C32.3333 31 31 32.3333 29 32.3333H11C11.5467 32.3333 12.1067 32.2533 12.6267 32.08C12.7733 32.0266 12.92 31.9733 13.0667 31.9066C13.5333 31.72 13.9867 31.4533 14.3867 31.1066C14.5067 31.0133 14.64 30.8933 14.76 30.7733L14.8133 30.72L23.88 21.6666H29C31 21.6666 32.3333 23 32.3333 25Z" fill="#DFD8FC"/>
<path d="M27.4933 18.0533L23.88 21.6666L14.8133 30.72C15.7466 29.76 16.3333 28.44 16.3333 27V14.12L19.9466 10.5067C21.36 9.09332 23.2533 9.09332 24.6666 10.5067L27.4933 13.3333C28.9066 14.7466 28.9066 16.64 27.4933 18.0533Z" fill="#DFD8FC"/>
<path fill-rule="evenodd" clip-rule="evenodd" d="M21.0954 0.329939C21.1997 0.225353 21.3237 0.142375 21.4601 0.085759C21.5965 0.0291427 21.7428 0 21.8905 0C22.0382 0 22.1845 0.0291427 22.321 0.085759C22.4574 0.142375 22.5813 0.225353 22.6856 0.329939L31.6701 9.31435C31.7746 9.41867 31.8576 9.5426 31.9142 9.67904C31.9709 9.81548 32 9.96175 32 10.1095C32 10.2572 31.9709 10.4035 31.9142 10.5399C31.8576 10.6763 31.7746 10.8003 31.6701 10.9046L27.398 15.1767L25.536 22.618C25.3944 23.1846 25.1079 23.7047 24.7047 24.1272C24.3015 24.5497 23.7953 24.8602 23.2359 25.0281L0 32L6.97191 8.76181C7.13995 8.20312 7.4502 7.69763 7.87228 7.29485C8.29435 6.89207 8.81379 6.60579 9.37973 6.46405L16.8211 4.60427L21.0954 0.329939ZM17.0524 6.86161L9.92553 8.64277C9.73635 8.68999 9.56272 8.78565 9.42172 8.92034C9.28073 9.05503 9.17724 9.22411 9.12143 9.41094L3.34894 28.6488L22.5913 22.8763C22.777 22.82 22.945 22.7166 23.0788 22.5761C23.2127 22.4355 23.3078 22.2627 23.355 22.0745L25.1384 14.9453L17.0524 6.85936V6.86161Z" fill="#5E3BEE"/>
</svg>
